<?xml version="1.0" encoding="UTF-8" standalone="no"?>
<!-- Created with Inkscape (http://www.inkscape.org/) -->

<svg
   width="831.63751"
   height="379.54013"
   viewBox="0 0 220.03742 100.41999"
   version="1.1"
   id="svg5"
   inkscape:version="1.2.2 (b0a8486541, 2022-12-01)"
   sodipodi:docname="logo_with_text_alt_side.svg"
   xmlns:inkscape="http://www.inkscape.org/namespaces/inkscape"
   xmlns:sodipodi="http://sodipodi.sourceforge.net/DTD/sodipodi-0.dtd"
   xmlns="http://www.w3.org/2000/svg"
   xmlns:svg="http://www.w3.org/2000/svg">
  <sodipodi:namedview
     id="namedview7"
     pagecolor="#ffffff"
     bordercolor="#000000"
     borderopacity="0.25"
     inkscape:showpageshadow="2"
     inkscape:pageopacity="0.0"
     inkscape:pagecheckerboard="0"
     inkscape:deskcolor="#d1d1d1"
     inkscape:document-units="mm"
     showgrid="false"
     inkscape:zoom="1.0544998"
     inkscape:cx="431.95836"
     inkscape:cy="210.52636"
     inkscape:window-width="1920"
     inkscape:window-height="1017"
     inkscape:window-x="-8"
     inkscape:window-y="-8"
     inkscape:window-maximized="1"
     inkscape:current-layer="layer1" />
  <defs
     id="defs2" />
  <g
     inkscape:label="Layer 1"
     inkscape:groupmode="layer"
     id="layer1">
    <text
       xml:space="preserve"
       style="font-style:normal;font-variant:normal;font-weight:bold;font-stretch:normal;font-size:6.35px;font-family:Arial;-inkscape-font-specification:'Arial Bold';text-align:start;text-anchor:start;display:inline;fill:#ffffff;stroke:none;stroke-width:0.396875;stroke-linecap:round;stroke-linejoin:round"
       x="79.3106"
       y="99.083641"
       id="text1087-8"><tspan
         sodipodi:role="line"
         style="font-style:normal;font-variant:normal;font-weight:normal;font-stretch:normal;font-size:6.35px;font-family:Arial;-inkscape-font-specification:Arial;text-align:start;text-anchor:start;fill:#ffffff;stroke-width:0.396875"
         x="79.3106"
         y="99.083641"
         id="tspan1191-6">Created by Cody Price</tspan></text>
    <text
       xml:space="preserve"
       style="font-style:italic;font-variant:normal;font-weight:normal;font-stretch:normal;font-size:7.05556px;font-family:Arial;-inkscape-font-specification:'Arial Italic';text-align:start;text-anchor:start;display:inline;fill:#ffffff;stroke:none;stroke-width:0.529167;stroke-linecap:round;stroke-linejoin:round;stroke-dasharray:none;stroke-opacity:1"
       x="79.367195"
       y="78.392586"
       id="text1271"><tspan
         sodipodi:role="line"
         style="font-style:italic;font-variant:normal;font-weight:bold;font-stretch:normal;font-size:7.05556px;font-family:Arial;-inkscape-font-specification:'Arial Bold Italic';text-align:start;text-anchor:start;display:inline;fill:#ffffff;stroke:none;stroke-width:0.529167;stroke-dasharray:none;stroke-opacity:1"
         x="79.367195"
         y="78.392586"
         id="tspan1269">FREE ONLINE BUG TRACKING SYSTEM</tspan><tspan
         sodipodi:role="line"
         style="font-style:italic;font-variant:normal;font-weight:bold;font-stretch:normal;font-size:7.05556px;font-family:Arial;-inkscape-font-specification:'Arial Bold Italic';text-align:start;text-anchor:start;display:inline;fill:#ffffff;stroke:none;stroke-width:0.529167;stroke-dasharray:none;stroke-opacity:1"
         x="79.367195"
         y="87.229179"
         id="tspan1273">FOR YOUR SOFTWARE PROJECT NEEDS</tspan></text>
    <text
       xml:space="preserve"
       style="font-style:italic;font-weight:bold;font-size:31.3972px;line-height:1;font-family:Arial;-inkscape-font-specification:'Arial Bold Italic';text-align:center;text-anchor:middle;fill:#ffffff;stroke:#000000;stroke-width:0.79375;stroke-linecap:round;stroke-dasharray:none;stroke-opacity:1"
       x="79.238907"
       y="33.108463"
       id="text385"><tspan
         sodipodi:role="line"
         id="tspan383"
         style="font-style:normal;font-variant:normal;font-weight:normal;font-stretch:condensed;font-size:31.3972px;font-family:Impact;-inkscape-font-specification:'Impact Condensed';text-align:start;text-anchor:start;fill:#ffffff;stroke:#000000;stroke-width:0.79375;stroke-dasharray:none;stroke-opacity:1"
         x="79.238907"
         y="33.108463">BUG</tspan><tspan
         sodipodi:role="line"
         style="font-style:normal;font-variant:normal;font-weight:normal;font-stretch:condensed;font-size:31.3972px;font-family:Impact;-inkscape-font-specification:'Impact Condensed';text-align:start;text-anchor:start;fill:#ffffff;stroke:#000000;stroke-width:0.79375;stroke-dasharray:none;stroke-opacity:1"
         x="79.238907"
         y="67.655678"
         id="tspan13032">TRACKER</tspan></text>
    <g
       transform="matrix(0.45368059,0.22756744,-0.2275648,0.45367532,30.482065,13.096518)"
       id="g1680"
       style="display:inline"
       inkscape:label="bug">
      <path
         style="color:#000000;font-style:normal;font-variant:normal;font-weight:400;font-stretch:normal;font-size:medium;line-height:normal;font-family:sans-serif;font-variant-ligatures:normal;font-variant-position:normal;font-variant-caps:normal;font-variant-numeric:normal;font-variant-alternates:normal;font-variant-east-asian:normal;font-feature-settings:normal;font-variation-settings:normal;text-indent:0;text-align:start;text-decoration:none;text-decoration-line:none;text-decoration-style:solid;text-decoration-color:#000000;letter-spacing:normal;word-spacing:normal;text-transform:none;writing-mode:lr-tb;direction:ltr;text-orientation:mixed;dominant-baseline:auto;baseline-shift:baseline;text-anchor:start;white-space:normal;shape-padding:0;shape-margin:0;inline-size:0;clip-rule:nonzero;display:inline;overflow:visible;visibility:visible;opacity:1;isolation:auto;mix-blend-mode:normal;color-interpolation:sRGB;color-interpolation-filters:linearRGB;solid-color:#000000;solid-opacity:1;vector-effect:none;fill:#ffffff;fill-opacity:1;fill-rule:nonzero;stroke:#000000;stroke-width:1.32292;stroke-linecap:round;stroke-linejoin:miter;stroke-miterlimit:4;stroke-dasharray:none;stroke-dashoffset:0;stroke-opacity:1;color-rendering:auto;image-rendering:auto;shape-rendering:auto;text-rendering:auto;enable-background:accumulate;stop-color:#000000;stop-opacity:1"
         d="m 51.445,2.86 a 2.646,2.646 0 0 0 -1.908,0.775 l -9.768,9.768 a 2.646,2.646 0 0 0 0,3.742 2.646,2.646 0 0 0 3.742,0 l 9.768,-9.768 a 2.646,2.646 0 0 0 0,-3.742 2.646,2.646 0 0 0 -1.834,-0.774 z m -33.53,0 a 2.646,2.646 0 0 0 -1.909,0.775 2.646,2.646 0 0 0 0,3.742 l 9.768,9.768 a 2.646,2.646 0 0 0 3.741,0 2.646,2.646 0 0 0 0,-3.742 L 19.748,3.635 A 2.646,2.646 0 0 0 17.915,2.861 Z"
         id="path1670" />
      <g
         id="ellipse1672">
        <path
           style="color:#000000;fill:#355166;stroke-width:5.22569;-inkscape-stroke:none"
           d="m 44.827998,23.785 a 10.256,11.026 0 0 1 -10.255999,11.026 10.256,11.026 0 0 1 -10.256,-11.026 10.256,11.026 0 0 1 10.256,-11.026 10.256,11.026 0 0 1 10.255999,11.026 z"
           id="path14692" />
        <path
           style="color:#000000;fill:#ffffff;-inkscape-stroke:none"
           d="m 34.572266,10.146484 c -7.182328,0 -12.869141,6.235715 -12.869141,13.638672 0,7.402958 5.686813,13.638672 12.869141,13.638672 7.182327,-10e-7 12.86914,-6.235715 12.86914,-13.638672 0,-7.402957 -5.686813,-13.638671 -12.86914,-13.638672 z m 0,5.22461 c 4.146125,0 7.642578,3.638049 7.642578,8.414062 0,4.776014 -3.496453,8.412109 -7.642578,8.41211 -4.146126,0 -7.642579,-3.636096 -7.642579,-8.41211 0,-4.776013 3.496453,-8.414062 7.642579,-8.414062 z"
           id="path14694" />
      </g>
      <path
         style="color:#000000;font-style:normal;font-variant:normal;font-weight:400;font-stretch:normal;font-size:medium;line-height:normal;font-family:sans-serif;font-variant-ligatures:normal;font-variant-position:normal;font-variant-caps:normal;font-variant-numeric:normal;font-variant-alternates:normal;font-variant-east-asian:normal;font-feature-settings:normal;font-variation-settings:normal;text-indent:0;text-align:start;text-decoration:none;text-decoration-line:none;text-decoration-style:solid;text-decoration-color:#000000;letter-spacing:normal;word-spacing:normal;text-transform:none;writing-mode:lr-tb;direction:ltr;text-orientation:mixed;dominant-baseline:auto;baseline-shift:baseline;text-anchor:start;white-space:normal;shape-padding:0;shape-margin:0;inline-size:0;clip-rule:nonzero;display:inline;overflow:visible;visibility:visible;isolation:auto;mix-blend-mode:normal;color-interpolation:sRGB;color-interpolation-filters:linearRGB;solid-color:#000000;solid-opacity:1;vector-effect:none;fill:#ffffff;fill-opacity:1;fill-rule:nonzero;stroke:#000000;stroke-width:1.32292;stroke-linecap:round;stroke-linejoin:round;stroke-miterlimit:4;stroke-dasharray:none;stroke-dashoffset:0;stroke-opacity:1;color-rendering:auto;image-rendering:auto;shape-rendering:auto;text-rendering:auto;enable-background:accumulate;stop-color:#000000"
         d="M 4.002,16.123 A 2.646,2.646 0 0 0 3.256,16.229 2.646,2.646 0 0 0 1.454,19.507 L 4.2,28.948 a 2.646,2.646 0 0 0 1.634,1.748 l 9.221,3.362 a 2.646,2.646 0 0 0 3.392,-1.58 2.646,2.646 0 0 0 -1.58,-3.39 L 8.906,26.184 6.538,18.032 a 2.646,2.646 0 0 0 -2.535,-1.91 z m 12.973,35.489 a 2.646,2.646 0 0 0 -0.874,0.16 l -9.22,3.362 A 2.646,2.646 0 0 0 5.247,56.88 L 2.502,66.323 A 2.646,2.646 0 0 0 4.304,69.6 2.646,2.646 0 0 0 7.582,67.8 l 2.37,-8.153 7.961,-2.903 a 2.646,2.646 0 0 0 1.58,-3.392 2.646,2.646 0 0 0 -2.518,-1.739 z M 16.617,38.13 6.801,38.202 a 2.646,2.646 0 0 0 -2.074,1.03 l -4.859,6.298 a 2.646,2.646 0 0 0 0.48,3.71 2.646,2.646 0 0 0 3.71,-0.478 l 4.072,-5.28 8.525,-0.062 a 2.646,2.646 0 0 0 2.628,-2.666 2.646,2.646 0 0 0 -2.666,-2.625 z M 64.728,16.125 a 2.646,2.646 0 0 0 -2.472,1.907 l -2.37,8.152 -7.962,2.903 a 2.646,2.646 0 0 0 -1.578,3.392 2.646,2.646 0 0 0 3.392,1.579 l 9.22,-3.362 a 2.646,2.646 0 0 0 1.635,-1.746 l 2.743,-9.443 a 2.646,2.646 0 0 0 -1.802,-3.278 2.646,2.646 0 0 0 -0.806,-0.104 z m -12.97,35.487 a 2.646,2.646 0 0 0 -2.46,1.74 2.646,2.646 0 0 0 1.581,3.39 l 7.96,2.904 2.37,8.153 a 2.646,2.646 0 0 0 3.28,1.802 2.646,2.646 0 0 0 1.802,-3.278 l -2.745,-9.441 a 2.646,2.646 0 0 0 -1.634,-1.748 l -9.22,-3.362 a 2.646,2.646 0 0 0 -0.934,-0.16 z M 52.176,38.13 a 2.646,2.646 0 0 0 -2.666,2.627 2.646,2.646 0 0 0 2.627,2.664 l 8.525,0.064 4.072,5.278 a 2.646,2.646 0 0 0 3.711,0.479 2.646,2.646 0 0 0 0.48,-3.71 l -4.86,-6.3 a 2.646,2.646 0 0 0 -2.076,-1.03 z"
         id="path1674" />
      <g
         id="path1676">
        <path
           style="color:#000000;fill:#355166;stroke-width:5.29167;stroke-linecap:round;stroke-linejoin:round;-inkscape-stroke:none"
           d="M 47.917,25.945 H 21.016 c -3.226,0 -5.855,9.396 -5.855,15.077 0,11.608 8.643,21.018 19.305,21.018 10.663,0 19.306,-9.41 19.306,-21.018 0,-5.68 -3.03,-15.077 -5.855,-15.077 z"
           id="path14698" />
        <path
           id="path14700"
           style="color:#000000;fill:#ffffff;stroke-linecap:round;stroke-linejoin:round;-inkscape-stroke:none"
           d="m 18.94624,23.794738 c -0.999676,0.510152 -1.761785,1.3434 -2.350367,2.158558 -0.94173,1.304252 -1.63256,2.845467 -2.217556,4.532948 -1.169991,3.374964 -1.862905,7.286971 -1.862905,10.535603 0,12.921319 9.73242,23.663297 21.951158,23.663297 12.219592,0 21.951073,-10.742229 21.951073,-23.663548 0,-3.310467 -0.810639,-7.21892 -2.027459,-10.570687 -0.60841,-1.675883 -1.30456,-3.195786 -2.200408,-4.470826 -0.895848,-1.27504 -2.099047,-2.680989 -4.272131,-2.680989 l -26.902121,-1.33e-4 c -0.784074,0 -1.469478,0.189686 -2.069284,0.495777 z m 2.349263,4.797109 26.164035,1.68e-4 c 0.04058,0.03497 0.183248,0.12328 0.399875,0.431598 0.466805,0.664395 1.05414,1.848876 1.556353,3.232235 1.004425,2.766722 1.710971,6.396177 1.710971,8.765698 0,9.5432 -6.492268,17.176501 -14.694181,18.240796 l 0.0012,-26.094219 A 1.96272,1.96272 0 0 0 34.4706,31.204967 1.96272,1.96272 0 0 0 32.507467,33.168146 l 6.54e-4,26.095582 c -8.204486,-1.060816 -14.70177,-8.695885 -14.70177,-18.241831 0,-2.432357 0.621347,-6.057593 1.572352,-8.800867 0.475503,-1.371637 1.047287,-2.535111 1.505804,-3.170136 0.2247,-0.311199 0.372082,-0.421012 0.411028,-0.459047 z" />
      </g>
    </g>
    <path
       fill="#000000"
       d="M 36.390485,0.39687499 V 4.282511 C 19.021475,5.050933 5.050595,19.021478 4.282505,36.390489 H 0.39687499 v 3.01342 H 4.282505 c 0.76842,17.36901 14.73897,31.33988 32.10798,32.10796 v 3.88564 h 3.01342 v -3.88564 c 17.36901,-0.76842 31.33989,-14.73895 32.10797,-32.10796 h 3.88565 v -3.01342 h -3.88565 C 70.743455,19.021478 56.772915,5.050597 39.403905,4.282511 V 0.39687499 Z m 0,6.90123101 v 9.170335 h 3.01342 V 7.298106 c 15.73675,0.759549 28.33283,13.35564 29.09238,29.092383 h -9.17033 v 3.01342 h 9.17033 c -0.75955,15.73674 -13.35563,28.33282 -29.09238,29.09237 v -9.17033 h -3.01342 v 9.17033 C 20.653745,67.736729 8.057655,55.140649 7.298105,39.403909 h 9.17034 v -3.01342 H 7.298105 C 8.057655,20.653746 20.653745,8.057655 36.390485,7.298106 Z"
       id="path2574"
       style="display:inline;fill:#ffffff;stroke:#000000;stroke-width:0.79375;stroke-linecap:round;stroke-linejoin:round;stroke-dasharray:none;stroke-opacity:1"
       sodipodi:nodetypes="cccccccccccccccccccccccccccccccccc"
       inkscape:label="crosshair" />
  </g>
</svg>
