<?xml version="1.0" encoding="UTF-8" standalone="no"?>
<!-- Created with Inkscape (http://www.inkscape.org/) -->

<svg
   width="50"
   height="45.377998"
   viewBox="0 0 13.229166 12.006262"
   version="1.1"
   id="svg1845"
   inkscape:version="1.2.2 (b0a8486541, 2022-12-01)"
   sodipodi:docname="icon_menu_bugs.svg"
   xmlns:inkscape="http://www.inkscape.org/namespaces/inkscape"
   xmlns:sodipodi="http://sodipodi.sourceforge.net/DTD/sodipodi-0.dtd"
   xmlns="http://www.w3.org/2000/svg"
   xmlns:svg="http://www.w3.org/2000/svg">
  <sodipodi:namedview
     id="namedview1847"
     pagecolor="#ffffff"
     bordercolor="#000000"
     borderopacity="0.25"
     inkscape:showpageshadow="2"
     inkscape:pageopacity="0.0"
     inkscape:pagecheckerboard="0"
     inkscape:deskcolor="#d1d1d1"
     inkscape:document-units="mm"
     showgrid="false"
     inkscape:zoom="4.2179991"
     inkscape:cx="103.01093"
     inkscape:cy="52.394511"
     inkscape:window-width="1920"
     inkscape:window-height="1017"
     inkscape:window-x="-8"
     inkscape:window-y="-8"
     inkscape:window-maximized="1"
     inkscape:current-layer="layer1" />
  <defs
     id="defs1842" />
  <g
     inkscape:label="Layer 1"
     inkscape:groupmode="layer"
     id="layer1">
    <g
       style="display:inline;fill:#ffffff"
       id="g19876"
       transform="matrix(0.02583848,0,0,0.02583848,0,-0.61151918)">
      <g
         id="g19866"
         style="fill:#ffffff">
	<g
   id="g19864"
   style="fill:#ffffff">
		<path
   d="M 498.667,290.667 H 404 V 240 c 0,-1.016 0.313,-2.036 0.291,-3.055 C 452.4,231.927 480,200.272 480,148.333 v -12 C 480,128.969 474.029,123 466.667,123 c -7.362,0 -13.333,5.969 -13.333,13.333 v 12 c 0,38.399 -17.005,58.821 -51.885,62.167 -6.069,-27.025 -20.875,-50.381 -45.537,-55.7 -3.745,-28.54 -21.413,-52.689 -46.115,-65.227 10.321,-10.501 16.871,-24.887 16.871,-40.74 V 37 c 0,-7.364 -5.971,-13.333 -13.333,-13.333 C 305.973,23.667 300,29.636 300,37 V 48.833 C 300,66.203 285.536,80 268.167,80 h -23 C 227.798,80 213.334,66.203 213.334,48.833 V 37 c 0,-7.364 -5.971,-13.333 -13.333,-13.333 -7.362,0 -13.334,5.969 -13.334,13.333 v 11.833 c 0,15.853 6.549,30.239 16.871,40.741 -24.701,12.537 -42.453,36.687 -46.199,65.227 -24.695,5.324 -39.465,28.736 -45.519,55.808 -35.759,-2.96 -53.153,-23.403 -53.153,-62.276 v -12 C 58.667,128.969 52.696,123 45.334,123 37.972,123 32,128.969 32,136.333 v 12 c 0,52.415 27.439,84.168 76.375,88.739 C 108.353,238.048 108,239.025 108,240 v 50.667 H 13.333 C 5.971,290.667 0,296.636 0,304 c 0,7.364 5.971,13.333 13.333,13.333 H 108 v 23 c 0,10.628 1.469,20.993 3.608,30.992 C 60.659,374.777 32,406.773 32,460.333 v 12 c 0,7.364 5.971,13.333 13.333,13.333 7.362,0 13.333,-5.969 13.333,-13.333 v -12 c 0,-41.795 20.151,-62.291 61.565,-62.649 22.451,53.208 75.151,90.649 136.435,90.649 61.276,0 113.971,-37.432 136.425,-90.629 40.519,0.784 60.241,21.283 60.241,62.629 v 12 c 0,7.364 5.971,13.333 13.333,13.333 7.362,0 13.335,-5.969 13.335,-13.333 v -12 c 0,-53.1 -28.823,-85.013 -78.96,-88.921 2.151,-10.025 2.96,-20.421 2.96,-31.079 v -23 h 94.667 c 7.363,0 13.333,-5.969 13.333,-13.333 0,-7.364 -5.971,-13.333 -13.333,-13.333 z m -256,170.188 c -60.333,-6.964 -108,-58.353 -108,-120.521 V 240 c 0,-20.793 6.948,-50.531 24.483,-58.035 6.627,18.368 24.56,31.368 45.184,31.368 h 38.333 z M 204.333,186.667 c -11.58,0 -21,-9.42 -21,-21 0,-32.532 26.468,-59 59,-59 h 2.833 23 2.834 c 32.532,0 59,26.468 59,59 0,11.58 -9.42,21 -21,21 z m 173,153.666 c 0,62.627 -47.027,114.32 -108,120.673 V 213.333 H 309 c 20.624,0 37.891,-13 44.517,-31.368 17.535,7.504 23.816,37.241 23.816,58.035 z"
   id="path19862"
   style="fill:#ffffff" />

	</g>

</g>
    </g>
  </g>
</svg>
