<?xml version="1.0" encoding="UTF-8" standalone="no"?>
<!-- Created with Inkscape (http://www.inkscape.org/) -->

<svg
   width="50"
   height="44.694"
   viewBox="0 0 13.229166 11.825288"
   version="1.1"
   id="svg1473"
   inkscape:version="1.2.2 (b0a8486541, 2022-12-01)"
   sodipodi:docname="icon_menu_projects.svg"
   xmlns:inkscape="http://www.inkscape.org/namespaces/inkscape"
   xmlns:sodipodi="http://sodipodi.sourceforge.net/DTD/sodipodi-0.dtd"
   xmlns="http://www.w3.org/2000/svg"
   xmlns:svg="http://www.w3.org/2000/svg">
  <sodipodi:namedview
     id="namedview1475"
     pagecolor="#ffffff"
     bordercolor="#000000"
     borderopacity="0.25"
     inkscape:showpageshadow="2"
     inkscape:pageopacity="0.0"
     inkscape:pagecheckerboard="0"
     inkscape:deskcolor="#d1d1d1"
     inkscape:document-units="mm"
     showgrid="false"
     inkscape:zoom="4.2179991"
     inkscape:cx="72.664786"
     inkscape:cy="26.789954"
     inkscape:window-width="1920"
     inkscape:window-height="1017"
     inkscape:window-x="-8"
     inkscape:window-y="-8"
     inkscape:window-maximized="1"
     inkscape:current-layer="layer1" />
  <defs
     id="defs1470" />
  <g
     inkscape:label="Layer 1"
     inkscape:groupmode="layer"
     id="layer1">
    <g
       style="display:inline;fill:#ffffff"
       id="g19123"
       transform="matrix(0.02583822,0,0,0.02583822,0,-0.70194692)">
      <g
         id="g19077"
         style="fill:#ffffff">
	<g
   id="g19075"
   style="fill:#ffffff">
		<path
   d="M 480.82,105.67 V 37.616 c 0,-5.771 -4.678,-10.449 -10.449,-10.449 H 10.449 C 4.678,27.167 0,31.845 0,37.616 v 370.271 c 0,5.771 4.678,10.449 10.449,10.449 h 54.512 v 32.671 c 0,18.651 15.177,33.826 33.833,33.826 H 478.167 C 496.823,484.832 512,469.658 512,451.006 v -311.63 c 0,-17.755 -13.761,-32.348 -31.18,-33.706 z M 64.961,186.121 V 397.437 H 20.898 V 48.065 h 439.024 v 57.491 h -127.27 c -18.656,0 -33.833,15.172 -33.833,33.819 0,7.127 -5.802,12.926 -12.935,12.926 H 98.794 c -18.656,0.001 -33.833,15.173 -33.833,33.82 z m 426.141,264.885 c 0,7.128 -5.802,12.929 -12.935,12.929 H 98.794 c -7.132,0 -12.935,-5.799 -12.935,-12.929 v -43.12 -221.764 c 0,-7.125 5.802,-12.921 12.935,-12.921 h 187.091 c 0.583,0 1.163,-0.015 1.739,-0.044 15.548,-0.791 28.359,-12.123 31.405,-26.972 0.451,-2.2 0.689,-4.477 0.689,-6.809 0,-7.125 5.802,-12.921 12.935,-12.921 h 137.719 7.796 c 7.132,0 12.935,5.796 12.935,12.921 v 311.63 z"
   id="path19073"
   style="fill:#ffffff" />

	</g>

</g>
      <g
         id="g19083"
         style="fill:#ffffff">
	<g
   id="g19081"
   style="fill:#ffffff">
		<path
   d="m 267.693,217.225 h -23.535 c -5.771,0 -10.449,4.678 -10.449,10.449 0,5.771 4.678,10.449 10.449,10.449 h 23.535 c 5.771,0 10.449,-4.678 10.449,-10.449 0,-5.771 -4.678,-10.449 -10.449,-10.449 z"
   id="path19079"
   style="fill:#ffffff" />

	</g>

</g>
      <g
         id="g19089"
         style="fill:#ffffff">
	<g
   id="g19087"
   style="fill:#ffffff">
		<path
   d="m 209.502,217.225 h -87.319 c -5.771,0 -10.449,4.678 -10.449,10.449 0,5.771 4.678,10.449 10.449,10.449 h 87.319 c 5.771,0 10.449,-4.678 10.449,-10.449 0,-5.771 -4.678,-10.449 -10.449,-10.449 z"
   id="path19085"
   style="fill:#ffffff" />

	</g>

</g>
      <g
         id="g19095"
         style="fill:#ffffff">
	<g
   id="g19093"
   style="fill:#ffffff">
		<path
   d="m 267.693,261.372 h -23.535 c -5.771,0 -10.449,4.678 -10.449,10.449 0,5.771 4.678,10.449 10.449,10.449 h 23.535 c 5.771,0 10.449,-4.678 10.449,-10.449 0,-5.771 -4.678,-10.449 -10.449,-10.449 z"
   id="path19091"
   style="fill:#ffffff" />

	</g>

</g>
      <g
         id="g19101"
         style="fill:#ffffff">
	<g
   id="g19099"
   style="fill:#ffffff">
		<path
   d="m 209.502,261.372 h -87.319 c -5.771,0 -10.449,4.678 -10.449,10.449 0,5.771 4.678,10.449 10.449,10.449 h 87.319 c 5.771,0 10.449,-4.678 10.449,-10.449 0,-5.771 -4.678,-10.449 -10.449,-10.449 z"
   id="path19097"
   style="fill:#ffffff" />

	</g>

</g>
    </g>
  </g>
</svg>
